<!DOCTYPE svg PUBLIC "-//W3C//DTD SVG 1.1//EN" "http://www.w3.org/Graphics/SVG/1.1/DTD/svg11.dtd">
<!-- Uploaded to: SVG Repo, www.svgrepo.com, Transformed by: SVG Repo Mixer Tools -->
<svg height="800px" width="800px" version="1.1" id="Layer_1" xmlns="http://www.w3.org/2000/svg" xmlns:xlink="http://www.w3.org/1999/xlink" viewBox="0 0 512 512" xml:space="preserve" fill="#000000">
<g id="SVGRepo_bgCarrier" stroke-width="0"/>
<g id="SVGRepo_tracerCarrier" stroke-linecap="round" stroke-linejoin="round"/>
<g id="SVGRepo_iconCarrier"> <g transform="translate(1 1)"> <polygon style="fill:#343a55;" points="33.172,502.467 476.905,502.467 476.905,161.133 33.172,161.133 "/> <path style="fill:#343a55;" d="M476.905,161.133c-31.573-89.6-121.173-153.6-221.867-153.6s-190.293,64-221.867,153.6H476.905z"/> <path style="fill:#343a55;" d="M442.772,161.133c-29.013-89.6-111.787-153.6-204.8-153.6s-175.787,64-204.8,153.6H442.772z"/> <polygon style="fill:#bfced4;" points="75.838,502.467 434.238,502.467 434.238,195.267 75.838,195.267 "/> <g> <path style="fill:#65729a;" d="M195.305,442.733c0,33.28-26.453,59.733-59.733,59.733s-59.733-26.453-59.733-59.733 S102.292,383,135.572,383S195.305,409.453,195.305,442.733"/> <path style="fill:#65729a;" d="M314.772,442.733c0,33.28-26.453,59.733-59.733,59.733s-59.733-26.453-59.733-59.733 S221.758,383,255.038,383S314.772,409.453,314.772,442.733"/> <path style="fill:#65729a;" d="M434.238,442.733c0,33.28-26.453,59.733-59.733,59.733s-59.733-26.453-59.733-59.733 S341.225,383,374.505,383S434.238,409.453,434.238,442.733"/> <path style="fill:#65729a;" d="M255.038,340.333c0,33.28-26.453,59.733-59.733,59.733s-59.733-26.453-59.733-59.733 s26.453-59.733,59.733-59.733S255.038,307.053,255.038,340.333"/> <path style="fill:#65729a;" d="M374.505,340.333c0,33.28-26.453,59.733-59.733,59.733s-59.733-26.453-59.733-59.733 s26.453-59.733,59.733-59.733S374.505,307.053,374.505,340.333"/> </g> <path d="M476.905,511H33.172c-5.12,0-8.533-3.413-8.533-8.533V161.133c0-5.12,3.413-8.533,8.533-8.533h443.733 c5.12,0,8.533,3.413,8.533,8.533v341.333C485.439,507.587,482.025,511,476.905,511z M41.705,493.933h426.667V169.667H41.705 V493.933z"/> <path d="M476.905,169.667H33.172c-2.56,0-5.12-1.707-6.827-3.413c-1.707-2.56-2.56-5.12-0.853-7.68 C57.918,64.707,152.638-1,255.038-1s197.12,65.707,229.547,159.573c0.853,2.56,0.853,5.12-0.853,7.68 C482.025,167.96,479.465,169.667,476.905,169.667z M45.972,152.6h418.987C429.972,71.533,346.345,16.067,255.038,16.067 S80.105,71.533,45.972,152.6z"/> <path d="M434.238,511h-358.4c-5.12,0-8.533-3.413-8.533-8.533v-307.2c0-5.12,3.413-8.533,8.533-8.533h358.4 c5.12,0,8.533,3.413,8.533,8.533v307.2C442.772,507.587,439.358,511,434.238,511z M84.372,493.933h341.333V203.8H84.372V493.933z"/> <path d="M135.572,511c-37.547,0-68.267-30.72-68.267-68.267s30.72-68.267,68.267-68.267s68.267,30.72,68.267,68.267 S173.118,511,135.572,511z M135.572,391.533c-28.16,0-51.2,23.04-51.2,51.2c0,28.16,23.04,51.2,51.2,51.2s51.2-23.04,51.2-51.2 C186.772,414.573,163.732,391.533,135.572,391.533z"/> <path d="M109.972,451.267c-5.12,0-8.533-3.413-8.533-8.533c0-18.773,15.36-34.133,34.133-34.133c5.12,0,8.533,3.413,8.533,8.533 s-3.413,8.533-8.533,8.533c-9.387,0-17.067,7.68-17.067,17.067C118.505,447.853,115.092,451.267,109.972,451.267z"/> <path d="M195.305,408.6c-37.547,0-68.267-30.72-68.267-68.267s30.72-68.267,68.267-68.267s68.267,30.72,68.267,68.267 S232.852,408.6,195.305,408.6z M195.305,289.133c-28.16,0-51.2,23.04-51.2,51.2c0,28.16,23.04,51.2,51.2,51.2s51.2-23.04,51.2-51.2 C246.505,312.173,223.465,289.133,195.305,289.133z"/> <path d="M169.705,348.867c-5.12,0-8.533-3.413-8.533-8.533c0-18.773,15.36-34.133,34.133-34.133c5.12,0,8.533,3.413,8.533,8.533 c0,5.12-3.413,8.533-8.533,8.533c-9.387,0-17.067,7.68-17.067,17.067C178.238,345.453,174.825,348.867,169.705,348.867z"/> <path d="M314.772,408.6c-37.547,0-68.267-30.72-68.267-68.267s30.72-68.267,68.267-68.267s68.267,30.72,68.267,68.267 S352.319,408.6,314.772,408.6z M314.772,289.133c-28.16,0-51.2,23.04-51.2,51.2c0,28.16,23.04,51.2,51.2,51.2s51.2-23.04,51.2-51.2 C365.972,312.173,342.932,289.133,314.772,289.133z"/> <path d="M289.172,348.867c-5.12,0-8.533-3.413-8.533-8.533c0-18.773,15.36-34.133,34.133-34.133c5.12,0,8.533,3.413,8.533,8.533 c0,5.12-3.413,8.533-8.533,8.533c-9.387,0-17.067,7.68-17.067,17.067C297.705,345.453,294.292,348.867,289.172,348.867z"/> <path d="M255.038,511c-37.547,0-68.267-30.72-68.267-68.267s30.72-68.267,68.267-68.267s68.267,30.72,68.267,68.267 S292.585,511,255.038,511z M255.038,391.533c-28.16,0-51.2,23.04-51.2,51.2c0,28.16,23.04,51.2,51.2,51.2s51.2-23.04,51.2-51.2 C306.238,414.573,283.198,391.533,255.038,391.533z"/> <path d="M229.438,451.267c-5.12,0-8.533-3.413-8.533-8.533c0-18.773,15.36-34.133,34.133-34.133c5.12,0,8.533,3.413,8.533,8.533 s-3.413,8.533-8.533,8.533c-9.387,0-17.067,7.68-17.067,17.067C237.972,447.853,234.558,451.267,229.438,451.267z"/> <path d="M374.505,511c-37.547,0-68.267-30.72-68.267-68.267s30.72-68.267,68.267-68.267s68.267,30.72,68.267,68.267 S412.052,511,374.505,511z M374.505,391.533c-28.16,0-51.2,23.04-51.2,51.2c0,28.16,23.04,51.2,51.2,51.2s51.2-23.04,51.2-51.2 C425.705,414.573,402.665,391.533,374.505,391.533z"/> <path d="M348.905,451.267c-5.12,0-8.533-3.413-8.533-8.533c0-18.773,15.36-34.133,34.133-34.133c5.12,0,8.533,3.413,8.533,8.533 s-3.413,8.533-8.533,8.533c-9.387,0-17.067,7.68-17.067,17.067C357.438,447.853,354.025,451.267,348.905,451.267z"/> </g> </g>
</svg>